# xmcd CD database file
#
# Track frame offsets:
#	150
#	17395
#	42045
#	61209
#	78958
#	103300
#	117924
#	134646
#	152298
#	171106
#	189920
#
# Disc length: 2772 seconds
#
# Revision: 0
# Processed by: cddbd v1.5.2PL0 Copyright (c) Steve Scherf et al.
# Submitted via: CDex 1.70beta2
#
DISCID=7f0ad20b
DTITLE=Montana Skies - Lift
DYEAR=2006
DGENRE=New Age
TTITLE0=Lift
TTITLE1=Wherever it Leads
TTITLE2=Cubana
TTITLE3=Canyon Breeze
TTITLE4=Malaguena
TTITLE5=Gringo Flamenco
TTITLE6=America
TTITLE7=Unfocused in Sedona
TTITLE8=Tango Viejo
TTITLE9=Feels Like Mexico
TTITLE10=Summertime
EXTD=YEAR: 2006
EXTT0=
EXTT1=
EXTT2=
EXTT3=
EXTT4=
EXTT5=
EXTT6=
EXTT7=
EXTT8=
EXTT9=
EXTT10=
PLAYORDER=
